# xmcd CD database file generated by Grip 2.96
# 
# Track frame offsets:
#       150
#       10035
#       20946
#       30358
#       40488
#       53547
#       65610
#       75364
#       90113
#       99864
#       110575
#       124374
#       133814
#       147625
#       162610
#       170619
# 
# Disc length: 2415 seconds
# 
# Revision: 0
# Processed by: cddbd v1.4PL0 Copyright (c) Steve Scherf et al.
# Submitted via: Grip 2.96
# 
DISCID=d3096d10
DTITLE=The Hortons - Live at the Roaring River Theatre
DYEAR=1900
DGENRE=
TTITLE0=Honky Tonk Man
TTITLE1=The Battle of New Orleans
TTITLE2=I'm a One Woman Man
TTITLE3=Born to Shop
TTITLE4=Ol' Slewfoot the Bear
TTITLE5=The Tennessee Flat Top Box
TTITLE6=The Electrified Donkey
TTITLE7='Cross the Brazos at Waco
TTITLE8=The Johnny Cash Medley
TTITLE9=My Old Clinch Mountain Home
TTITLE10=North to Alaska
TTITLE11=The Church in the Valley
TTITLE12=San Antonio Rose
TTITLE13=Sink the Bismark
TTITLE14=Love's Gonna Live Here
TTITLE15=It's Not What You Know (But Who You Know)
EXTD=
EXTT0=
EXTT1=
EXTT2=
EXTT3=
EXTT4=
EXTT5=
EXTT6=
EXTT7=
EXTT8=
EXTT9=
EXTT10=
EXTT11=
EXTT12=
EXTT13=
EXTT14=
EXTT15=
PLAYORDER=
